<mxfile host="app.diagrams.net" modified="2022-04-30T13:46:15.299Z" agent="5.0 (X11; Linux x86_64) AppleWebKit/537.36 (KHTML, like Gecko) Chrome/97.0.4692.71 Safari/537.36" etag="V3XO9rmjvm_qZm-ONg4g" version="17.5.0" type="github">
  <diagram id="xCgqkTYJZqY45vzJ_Ph0" name="Page-1">
    <mxGraphModel dx="1974" dy="1135" grid="1" gridSize="10" guides="1" tooltips="1" connect="1" arrows="1" fold="1" page="1" pageScale="1" pageWidth="850" pageHeight="1100" math="0" shadow="0">
      <root>
        <mxCell id="0" />
        <mxCell id="1" parent="0" />
        <mxCell id="5yHfqcYBNrMmWH0o9WeA-1" value="" style="rounded=1;whiteSpace=wrap;html=1;" vertex="1" parent="1">
          <mxGeometry x="360" y="550" width="120" height="60" as="geometry" />
        </mxCell>
      </root>
    </mxGraphModel>
  </diagram>
</mxfile>
